<svg id="visual" viewBox="0 0 1200 2700" width="1200" height="2700" xmlns="http://www.w3.org/2000/svg" xmlns:xlink="http://www.w3.org/1999/xlink" version="1.1"><rect x="0" y="0" width="1200" height="2700" fill="#ffffff"></rect><path d="M0 197L25 198.8C50 200.7 100 204.3 150 199.8C200 195.3 250 182.7 300 178C350 173.3 400 176.7 450 184C500 191.3 550 202.7 600 206.5C650 210.3 700 206.7 750 204.7C800 202.7 850 202.3 900 198.8C950 195.3 1000 188.7 1050 183.8C1100 179 1150 176 1175 174.5L1200 173L1200 0L1175 0C1150 0 1100 0 1050 0C1000 0 950 0 900 0C850 0 800 0 750 0C700 0 650 0 600 0C550 0 500 0 450 0C400 0 350 0 300 0C250 0 200 0 150 0C100 0 50 0 25 0L0 0Z" fill="#c4d3d3"></path><path d="M0 140L25 139.2C50 138.3 100 136.7 150 135.5C200 134.3 250 133.7 300 134.2C350 134.7 400 136.3 450 134.8C500 133.3 550 128.7 600 129.2C650 129.7 700 135.3 750 136.2C800 137 850 133 900 134.2C950 135.3 1000 141.7 1050 144.2C1100 146.7 1150 145.3 1175 144.7L1200 144L1200 0L1175 0C1150 0 1100 0 1050 0C1000 0 950 0 900 0C850 0 800 0 750 0C700 0 650 0 600 0C550 0 500 0 450 0C400 0 350 0 300 0C250 0 200 0 150 0C100 0 50 0 25 0L0 0Z" fill="#8d9797"></path><path d="M0 111L25 111.8C50 112.7 100 114.3 150 112.8C200 111.3 250 106.7 300 101.8C350 97 400 92 450 91.8C500 91.7 550 96.3 600 101C650 105.7 700 110.3 750 108C800 105.7 850 96.3 900 96.3C950 96.3 1000 105.7 1050 107.3C1100 109 1150 103 1175 100L1200 97L1200 0L1175 0C1150 0 1100 0 1050 0C1000 0 950 0 900 0C850 0 800 0 750 0C700 0 650 0 600 0C550 0 500 0 450 0C400 0 350 0 300 0C250 0 200 0 150 0C100 0 50 0 25 0L0 0Z" fill="#5a5e5e"></path><path d="M0 65L25 65.3C50 65.7 100 66.3 150 62.8C200 59.3 250 51.7 300 50.7C350 49.7 400 55.3 450 57.7C500 60 550 59 600 59.3C650 59.7 700 61.3 750 60.3C800 59.3 850 55.7 900 52.7C950 49.7 1000 47.3 1050 47.8C1100 48.3 1150 51.7 1175 53.3L1200 55L1200 0L1175 0C1150 0 1100 0 1050 0C1000 0 950 0 900 0C850 0 800 0 750 0C700 0 650 0 600 0C550 0 500 0 450 0C400 0 350 0 300 0C250 0 200 0 150 0C100 0 50 0 25 0L0 0Z" fill="#2b2b2b"></path></svg>