<svg id="visual" viewBox="0 0 1168 1005" width="1168" height="1005" xmlns="http://www.w3.org/2000/svg" xmlns:xlink="http://www.w3.org/1999/xlink" version="1.1"><path d="M0 202L17.7 193.7C35.3 185.3 70.7 168.7 106 150.2C141.3 131.7 176.7 111.3 212.2 126.3C247.7 141.3 283.3 191.7 318.8 196.8C354.3 202 389.7 162 425 142C460.3 122 495.7 122 531 128.7C566.3 135.3 601.7 148.7 637 145.3C672.3 142 707.7 122 743 137C778.3 152 813.7 202 849.2 207C884.7 212 920.3 172 955.8 170.3C991.3 168.7 1026.7 205.3 1062 230.3C1097.3 255.3 1132.7 268.7 1150.3 275.3L1168 282L1168 0L1150.3 0C1132.7 0 1097.3 0 1062 0C1026.7 0 991.3 0 955.8 0C920.3 0 884.7 0 849.2 0C813.7 0 778.3 0 743 0C707.7 0 672.3 0 637 0C601.7 0 566.3 0 531 0C495.7 0 460.3 0 425 0C389.7 0 354.3 0 318.8 0C283.3 0 247.7 0 212.2 0C176.7 0 141.3 0 106 0C70.7 0 35.3 0 17.7 0L0 0Z" fill="#ffffff"></path><path d="M0 504L17.7 515.7C35.3 527.3 70.7 550.7 106 537.2C141.3 523.7 176.7 473.3 212.2 466.7C247.7 460 283.3 497 318.8 498.7C354.3 500.3 389.7 466.7 425 431.5C460.3 396.3 495.7 359.7 531 341.3C566.3 323 601.7 323 637 336.3C672.3 349.7 707.7 376.3 743 406.5C778.3 436.7 813.7 470.3 849.2 448.5C884.7 426.7 920.3 349.3 955.8 344.2C991.3 339 1026.7 406 1062 469.7C1097.3 533.3 1132.7 593.7 1150.3 623.8L1168 654L1168 280L1150.3 273.3C1132.7 266.7 1097.3 253.3 1062 228.3C1026.7 203.3 991.3 166.7 955.8 168.3C920.3 170 884.7 210 849.2 205C813.7 200 778.3 150 743 135C707.7 120 672.3 140 637 143.3C601.7 146.7 566.3 133.3 531 126.7C495.7 120 460.3 120 425 140C389.7 160 354.3 200 318.8 194.8C283.3 189.7 247.7 139.3 212.2 124.3C176.7 109.3 141.3 129.7 106 148.2C70.7 166.7 35.3 183.3 17.7 191.7L0 200Z" fill="#d0d0d0"></path><path d="M0 765L17.7 763.3C35.3 761.7 70.7 758.3 106 744.8C141.3 731.3 176.7 707.7 212.2 695.8C247.7 684 283.3 684 318.8 692.5C354.3 701 389.7 718 425 729.8C460.3 741.7 495.7 748.3 531 743.3C566.3 738.3 601.7 721.7 637 715C672.3 708.3 707.7 711.7 743 736.7C778.3 761.7 813.7 808.3 849.2 810C884.7 811.7 920.3 768.3 955.8 751.7C991.3 735 1026.7 745 1062 763.3C1097.3 781.7 1132.7 808.3 1150.3 821.7L1168 835L1168 652L1150.3 621.8C1132.7 591.7 1097.3 531.3 1062 467.7C1026.7 404 991.3 337 955.8 342.2C920.3 347.3 884.7 424.7 849.2 446.5C813.7 468.3 778.3 434.7 743 404.5C707.7 374.3 672.3 347.7 637 334.3C601.7 321 566.3 321 531 339.3C495.7 357.7 460.3 394.3 425 429.5C389.7 464.7 354.3 498.3 318.8 496.7C283.3 495 247.7 458 212.2 464.7C176.7 471.3 141.3 521.7 106 535.2C70.7 548.7 35.3 525.3 17.7 513.7L0 502Z" fill="#a2a2a2"></path><path d="M0 855L17.7 858.3C35.3 861.7 70.7 868.3 106 870C141.3 871.7 176.7 868.3 212.2 865C247.7 861.7 283.3 858.3 318.8 871.8C354.3 885.3 389.7 915.7 425 922.3C460.3 929 495.7 912 531 903.5C566.3 895 601.7 895 637 896.8C672.3 898.7 707.7 902.3 743 907.5C778.3 912.7 813.7 919.3 849.2 921C884.7 922.7 920.3 919.3 955.8 912.5C991.3 905.7 1026.7 895.3 1062 898.7C1097.3 902 1132.7 919 1150.3 927.5L1168 936L1168 833L1150.3 819.7C1132.7 806.3 1097.3 779.7 1062 761.3C1026.7 743 991.3 733 955.8 749.7C920.3 766.3 884.7 809.7 849.2 808C813.7 806.3 778.3 759.7 743 734.7C707.7 709.7 672.3 706.3 637 713C601.7 719.7 566.3 736.3 531 741.3C495.7 746.3 460.3 739.7 425 727.8C389.7 716 354.3 699 318.8 690.5C283.3 682 247.7 682 212.2 693.8C176.7 705.7 141.3 729.3 106 742.8C70.7 756.3 35.3 759.7 17.7 761.3L0 763Z" fill="#777777"></path><path d="M0 1006L17.7 1006C35.3 1006 70.7 1006 106 1006C141.3 1006 176.7 1006 212.2 1006C247.7 1006 283.3 1006 318.8 1006C354.3 1006 389.7 1006 425 1006C460.3 1006 495.7 1006 531 1006C566.3 1006 601.7 1006 637 1006C672.3 1006 707.7 1006 743 1006C778.3 1006 813.7 1006 849.2 1006C884.7 1006 920.3 1006 955.8 1006C991.3 1006 1026.7 1006 1062 1006C1097.3 1006 1132.7 1006 1150.3 1006L1168 1006L1168 934L1150.3 925.5C1132.7 917 1097.3 900 1062 896.7C1026.7 893.3 991.3 903.7 955.8 910.5C920.3 917.3 884.7 920.7 849.2 919C813.7 917.3 778.3 910.7 743 905.5C707.7 900.3 672.3 896.7 637 894.8C601.7 893 566.3 893 531 901.5C495.7 910 460.3 927 425 920.3C389.7 913.7 354.3 883.3 318.8 869.8C283.3 856.3 247.7 859.7 212.2 863C176.7 866.3 141.3 869.7 106 868C70.7 866.3 35.3 859.7 17.7 856.3L0 853Z" fill="#4f4e4e"></path></svg>